<?xml version="1.0" encoding="UTF-8"?><svg id="b" xmlns="http://www.w3.org/2000/svg" viewBox="0 0 144 144"><defs><style>.d{fill:#fff;}.e{fill:red;opacity:0;}</style></defs><g id="c"><g><rect class="e" width="144" height="144"/><polygon class="d" points="33.24 47.59 72.76 18.88 110.41 48.06 110.18 111.12 35.59 110.41 33.24 47.59"/><path d="M132.6,57L72,11.55,11.4,57l6,8,11.66-8.74v59.56H114.94V56.26l11.66,8.74,6-8Zm-27.66,48.82H39.06V48.76l32.94-24.71,32.94,24.71v57.06Z"/><path d="M132.6,57L72,11.55,11.4,57l6,8,11.66-8.74v59.56H114.94V56.26l11.66,8.74,6-8Zm-27.66,48.82H39.06V48.76l32.94-24.71,32.94,24.71v57.06Z"/></g></g></svg>