<?xml version="1.0" encoding="UTF-8"?><svg id="b" xmlns="http://www.w3.org/2000/svg" viewBox="0 0 288 172.8"><defs><style>.d{fill:#c1d8f5;}.e{opacity:.46;}</style></defs><g id="c"><g><rect class="d" width="288" height="172.8"/><path class="e" d="M165.6,58.63c0,27.77-18.51,21.6-18.51,27.77,0,9.26,18.51,0,18.51,27.77h-43.2c0-27.77,18.51-18.51,18.51-27.77,0-6.17-18.51,0-18.51-27.77h43.2m4-4h-51.2v4c0,21.65,10.82,25.69,16.63,27.87,.45,.17,.99,.37,1.45,.56-.62,.33-1.75,.74-2.56,1.04-5.8,2.12-15.51,5.68-15.51,26.08v4h51.2v-4c0-20.4-9.71-23.96-15.51-26.08-.8-.29-1.92-.7-2.55-1.04,.45-.19,.99-.39,1.43-.55,5.81-2.17,16.63-6.22,16.63-27.87v-4h0Z"/><path class="e" d="M152.23,99.77c4.11,0,4.11,8.23,4.11,8.23-4.11,0-20.57,0-24.69,0,0,0,0-8.23,4.11-8.23s12.34,0,16.46,0Z"/><path class="e" d="M156.34,70.97c0,6.94-10,6.94-12.34,9.26-2.34-2.31-12.34-2.31-12.34-9.26h24.69Z"/></g></g></svg>