<?xml version="1.0" encoding="UTF-8"?><svg id="b" xmlns="http://www.w3.org/2000/svg" viewBox="0 0 144 144"><defs><style>.d{fill:#fff;}.e{opacity:0;}.f{fill:#666;}</style></defs><g id="c"><g><circle class="d" cx="72" cy="72" r="64.8"/><g class="e"><rect class="d" width="144" height="144"/></g><path class="f" d="M72,7.2C36.21,7.2,7.2,36.21,7.2,72c0,31.34,22.24,57.47,51.8,63.49v-47.67h-12.29v-17.25h12.31c.19-18.74,4.2-30.77,12.58-37.76,8.18-6.82,18.17-6.82,26.2-6.82v20c-5.78,0-10.78,0-13.4,2.18-1.96,1.63-5.21,6.71-5.39,22.39h20.7l-6.62,17.25h-14.08v48.59c32.49-3.49,57.8-31,57.8-64.42,0-35.79-29.01-64.8-64.8-64.8Z"/></g></g></svg>