<?xml version="1.0" encoding="UTF-8"?><svg id="b" xmlns="http://www.w3.org/2000/svg" viewBox="0 0 144 144"><defs><style>.d,.e{fill:#fff;}.e{opacity:0;}.f{fill:#666;}</style></defs><g id="c"><g><rect class="e" width="144" height="144"/><circle class="f" cx="72" cy="72" r="64.8"/><path class="d" d="M21.32,49.96c10.88,.22,21.65,.63,32.49-.28-.07,1.13-.14,2.16-.2,3.19-.13,2.26-.24,4.52-.39,6.78-.1,1.43,.08,1.22-1.31,1.24-.97,.01-.95,0-1.22-.92-.46-1.56-.88-3.14-1.46-4.66-.63-1.64-1.84-2.45-3.7-2.41-3.78,.08-7.56,.02-11.33,.03-1.13,0-1.18,.06-1.18,1.17,0,4.37,.01,8.74-.01,13.11,0,.63,.19,.81,.8,.78,2.4-.11,4.81-.14,7.22-.26,1.63-.08,2.1-.52,2.5-2.08,.25-.97,.51-1.93,.7-2.91,.1-.53,.35-.72,.87-.67,.4,.04,.82,.03,1.22,0,.4-.03,.55,.12,.52,.53-.3,4.28-.32,8.57-.18,12.85,.03,.82,0,.84-.84,.82-1.94-.04-1.44,.33-1.93-1.54-.16-.61-.27-1.24-.46-1.84-.42-1.35-1.13-1.95-2.52-2-2.45-.09-4.9-.1-7.35-.16-.4,0-.54,.14-.54,.53,.01,3.98,0,7.97,.03,11.95,.01,1.46,.84,2.41,2.26,2.72,.44,.1,.89,.17,1.33,.17,2.96,.01,5.92,.03,8.88,0,1.4-.01,2.83-.17,3.9-1.17,.74-.69,1.4-1.55,1.88-2.45,.78-1.48,1.39-3.04,2.04-4.58,.19-.45,.45-.61,.93-.6,1.78,.06,1.44-.18,1.26,1.48-.32,2.88-.67,5.75-1.04,8.62-.26,2.01,.27,1.7-1.89,1.65-2.96-.08-5.92-.17-8.88-.19-5.23-.02-10.46,0-15.68,.03-2.02,.01-4.04,.12-6.06,.22-.5,.02-.68-.13-.67-.64,0-1.82,0-1.8,1.79-2.11,.8-.14,1.6-.33,2.37-.57,.86-.27,1.25-.94,1.25-1.83,.04-8.52,.07-17.03,.1-25.55,0-1.02-.05-2.04-.1-3.06-.06-1.43-.6-2.07-2-2.37-.92-.19-1.84-.36-2.76-.52-.45-.07-.69-.23-.65-.75,.05-.56,.01-1.13,.01-1.76Z"/><path class="d" d="M115.27,83.49c.63-1.45,1.21-2.75,1.75-4.06,1.5-3.62,2.99-7.24,4.49-10.86,.03-.08,.06-.15,.08-.23,.56-1.63,.19-2.41-1.42-2.97-.19-.07-.39-.12-.58-.18-1.19-.38-1.43-.76-1.14-1.99,.04-.15,.32-.35,.5-.35,.57-.01,1.14,.08,1.71,.08,2.53-.02,5.06-.05,7.58-.09,.87-.01,.87-.03,.87,.8q0,1.17-1.08,1.6c-.23,.09-.45,.2-.68,.27-1.23,.38-1.92,1.25-2.41,2.42-3.01,7.17-6.03,14.33-9.11,21.47-1.27,2.94-2.88,5.68-5.16,7.98-2.27,2.28-4.99,3.45-8.24,3.43-1.81-.01-3.54-.24-5.15-1.07-.79-.41-.78-.46-.6-1.34,.39-1.94,.75-3.88,1.11-5.83,.16-.89,.14-.89,1.03-.92,1.47-.05,1.48-.05,1.78,1.39,.19,.9,.34,1.8,.55,2.7,.26,1.13,.93,1.63,2.09,1.66,1.98,.06,3.67-.66,5.13-1.95,1.55-1.35,2.63-3.05,3.55-4.87,.1-.2,.1-.53,.01-.74-3.04-7.48-6.1-14.96-9.14-22.44-.49-1.2-1.24-2.05-2.55-2.31-.59-.12-.76-.46-.74-1.05,.05-1.3-.14-1.28,1.24-1.16,3.71,.3,7.42,.16,11.14-.03,.94-.05,.94-.02,.93,.91,0,1.34,.14,1.02-1.11,1.35-.43,.11-.88,.18-1.3,.34-1.04,.4-1.43,1.12-1.07,2.19,.7,2.09,1.45,4.16,2.22,6.22,1.14,3.06,2.31,6.1,3.47,9.15,.04,.11,.1,.22,.23,.49Z"/><path class="d" d="M87.6,89.6c-2.65-.09-5.19-.62-7.7-1.41-.38-.12-.49-.32-.48-.71,.02-2.06,.03-4.12,0-6.18-.01-.92-.04-.94,.86-.95,1.25-.02,1.26-.02,1.73,1.14,.36,.89,.72,1.78,1.06,2.68,.67,1.75,1.99,2.75,3.78,2.99,.99,.14,2.06,.09,3.03-.12,2.73-.59,3.76-3.97,1.94-6.2-1.05-1.29-2.55-1.93-4-2.64-1.68-.82-3.41-1.58-5-2.57-2.47-1.52-3.51-3.85-3.24-6.73,.3-3.14,2.12-5.06,5.02-6.07,2.19-.76,4.45-.82,6.72-.56,1.57,.18,3.13,.54,4.69,.81,.55,.1,.68,.41,.62,.95-.19,1.83-.34,3.66-.48,5.49-.03,.41-.18,.57-.58,.6-1.56,.11-1.56,.12-2.06-1.38-.24-.74-.52-1.46-.73-2.21-.24-.85-.77-1.38-1.57-1.66-1.66-.58-3.34-.6-4.97,.07-2.07,.85-2.65,3.27-1.27,5.03,.85,1.08,2.02,1.69,3.22,2.28,1.86,.92,3.8,1.72,5.59,2.77,4.44,2.59,4.68,7.01,3.05,10.12-1.27,2.44-3.53,3.54-6.1,4.06-1.03,.21-2.1,.26-3.15,.38Z"/><path class="d" d="M74.95,83.89c.39,.51,.75,.92,1.03,1.38,.09,.16,.02,.48-.08,.67-.51,.98-1.24,1.78-2.21,2.32-2.84,1.58-5.8,1.9-8.82,.61-2.12-.91-3.15-2.7-3.46-4.92-.09-.62-.1-1.26-.1-1.89,0-4.94,0-9.88,0-14.83,0-.87,0-.87-.89-.87-1.08,0-2.16,0-3.25,.03-.45,.01-.61-.12-.61-.59-.02-1.46-.03-1.45,1.36-1.89,3.06-.96,5.04-2.99,5.93-6.07,.21-.74,.42-1.49,.59-2.25,.08-.38,.26-.49,.63-.49,1.93-.04,1.93-.05,1.93,1.87,0,1.82,0,3.64,0,5.45,0,.85,0,.84,.82,.81,2.26-.09,4.53-.18,6.79-.26,.73-.03,.77,.04,.67,.76-.11,.83-.23,1.66-.3,2.49-.03,.39-.18,.54-.57,.51-1.55-.12-3.09-.23-4.64-.34-.73-.05-1.46-.1-2.19-.17-.41-.04-.58,.09-.58,.54,.02,4.88,0,9.76,.03,14.64,0,.67,.12,1.35,.28,2,.54,2.19,2.05,3.12,4.27,2.65,1.35-.28,2.45-.97,3.39-2.15Z"/></g></g></svg>