<?xml version="1.0" encoding="UTF-8"?><svg id="b" xmlns="http://www.w3.org/2000/svg" viewBox="0 0 120.2 120.2"><defs><style>.d{opacity:.29;}</style></defs><g id="c"><g class="d"><g><path d="M3.25,54.37H1.75c-.97,0-1.75-.78-1.75-1.75v-7.97c0-.97,.78-1.75,1.75-1.75h1.5c.97,0,1.75,.78,1.75,1.75v7.97c0,.97-.78,1.75-1.75,1.75Z"/><path d="M52.62,5h-7.97c-.97,0-1.75-.78-1.75-1.75V1.75c0-.97,.78-1.75,1.75-1.75h7.97c.97,0,1.75,.78,1.75,1.75v1.5c0,.97-.78,1.75-1.75,1.75Zm-22.93,0h-7.97c-.97,0-1.75-.78-1.75-1.75V1.75c0-.97,.78-1.75,1.75-1.75h7.97c.97,0,1.75,.78,1.75,1.75v1.5c0,.97-.78,1.75-1.75,1.75Z"/><rect y="19.97" width="5" height="11.47" rx="1.75" ry="1.75"/><rect x="1.86" y="5.1" width="11.47" height="5" rx="1.75" ry="1.75" transform="translate(-3.15 7.6) rotate(-45)"/></g><g><path d="M65.83,3.25V1.75c0-.97,.78-1.75,1.75-1.75h7.97c.97,0,1.75,.78,1.75,1.75v1.5c0,.97-.78,1.75-1.75,1.75h-7.97c-.97,0-1.75-.78-1.75-1.75Z"/><path d="M115.2,52.62v-7.97c0-.97,.78-1.75,1.75-1.75h1.5c.97,0,1.75,.78,1.75,1.75v7.97c0,.97-.78,1.75-1.75,1.75h-1.5c-.97,0-1.75-.78-1.75-1.75Zm0-22.93v-7.97c0-.97,.78-1.75,1.75-1.75h1.5c.97,0,1.75,.78,1.75,1.75v7.97c0,.97-.78,1.75-1.75,1.75h-1.5c-.97,0-1.75-.78-1.75-1.75Z"/><rect x="88.77" width="11.47" height="5" rx="1.75" ry="1.75"/><rect x="110.1" y="1.86" width="5" height="11.47" rx="1.75" ry="1.75" transform="translate(27.61 81.85) rotate(-45)"/></g><g><path d="M116.95,65.83h1.5c.97,0,1.75,.78,1.75,1.75v7.97c0,.97-.78,1.75-1.75,1.75h-1.5c-.97,0-1.75-.78-1.75-1.75v-7.97c0-.97,.78-1.75,1.75-1.75Z"/><path d="M67.58,115.2h7.97c.97,0,1.75,.78,1.75,1.75v1.5c0,.97-.78,1.75-1.75,1.75h-7.97c-.97,0-1.75-.78-1.75-1.75v-1.5c0-.97,.78-1.75,1.75-1.75Zm22.93,0h7.97c.97,0,1.75,.78,1.75,1.75v1.5c0,.97-.78,1.75-1.75,1.75h-7.97c-.97,0-1.75-.78-1.75-1.75v-1.5c0-.97,.78-1.75,1.75-1.75Z"/><rect x="115.2" y="88.77" width="5" height="11.47" rx="1.75" ry="1.75"/><rect x="106.87" y="110.1" width="11.47" height="5" rx="1.75" ry="1.75" transform="translate(-46.64 112.6) rotate(-45)"/></g><g><path d="M54.37,116.95v1.5c0,.97-.78,1.75-1.75,1.75h-7.97c-.97,0-1.75-.78-1.75-1.75v-1.5c0-.97,.78-1.75,1.75-1.75h7.97c.97,0,1.75,.78,1.75,1.75Z"/><path d="M5,67.58v7.97c0,.97-.78,1.75-1.75,1.75H1.75c-.97,0-1.75-.78-1.75-1.75v-7.97c0-.97,.78-1.75,1.75-1.75h1.5c.97,0,1.75,.78,1.75,1.75Zm0,22.93v7.97c0,.97-.78,1.75-1.75,1.75H1.75c-.97,0-1.75-.78-1.75-1.75v-7.97c0-.97,.78-1.75,1.75-1.75h1.5c.97,0,1.75,.78,1.75,1.75Z"/><rect x="19.97" y="115.2" width="11.47" height="5" rx="1.75" ry="1.75"/><rect x="5.1" y="106.87" width="5" height="11.47" rx="1.75" ry="1.75" transform="translate(-77.4 38.35) rotate(-45)"/></g></g></g></svg>