<?xml version="1.0" encoding="UTF-8"?><svg id="b" xmlns="http://www.w3.org/2000/svg" xmlns:xlink="http://www.w3.org/1999/xlink" viewBox="0 0 144 144"><defs><style>.e{fill:red;opacity:0;}.f{fill:#e6e6e6;}.g{fill:#3fa9f5;}.h{fill:url(#d);}</style><linearGradient id="d" x1="27.22" y1="46.84" x2="116.65" y2="46.84" gradientTransform="translate(3.69 7.99) rotate(3.09)" gradientUnits="userSpaceOnUse"><stop offset="0" stop-color="#bfcfd7"/><stop offset=".47" stop-color="#f8fafa"/><stop offset=".52" stop-color="#fff"/><stop offset="1" stop-color="#a8cff4"/></linearGradient></defs><g id="c"><g><rect class="e" width="144" height="144"/><g><path class="h" d="M110.77,64.96l1.3-19.9,.62-11.5-3.06-2.73c.66-1.36,1.05-2.78,1.13-4.25,.61-11.32-16.93-21.46-39.18-22.66-22.25-1.2-40.78,7-41.39,18.32-.21,3.93,1.77,7.71,5.36,11.03l-2.99,5.07-4.87,49.22,13.14,19.57,16.45,3.55,6.54,2.13,10.8-2.75,7.37,3.28,11.78-.47,17.94-11.68s4.47-17.07,4.73-17.72c.26-.65-5.66-18.5-5.66-18.5Z"/><path class="f" d="M110.77,64.96l1.3-19.9,.62-11.5-3.06-2.73c.66-1.36,1.05-2.78,1.13-4.25,.61-11.32-16.93-21.46-39.18-22.66-22.25-1.2-40.78,7-41.39,18.32-.21,3.93,1.77,7.71,5.36,11.03l-2.99,5.07-4.87,49.22s22.78,27.69,44.93,26.75c22.16-.94,39.28-12.03,39.41-12.35,.26-.65-1.25-36.98-1.25-36.98Z"/><path class="g" d="M88.02,7.56c14.78-3.62,30.21,7.31,27.39,23.59-2.5,17.96-17.2,23.32-33.16,22.18-4.4-.11-9.01-1.01-13.1-.5-2.73,.78-5.9,1.83-8.5,2.94-2.64,1.19-5.52,2.66-7.13,5.04-1.07,1.54-2.8-1.86-2.15,.66-3.71-2.25-3.08-2.36-1-6.26,2.53-5.13,7.23-8.69,12.1-11.4,1.11-.59,2.1-1.18,3.29-1.64,3.44-1.17,6.44-1.09,9.68-1.1,11.84,.07,26.08,2.54,29.26-11.94,.2-.71,.34-1.53,.48-2.27,.19-.91,.3-1.73,.2-2.83-.78-8.65-9.5-13.94-17.36-16.47h0Z"/><path class="g" d="M89.21,25.87c-2.7,10.07-16.62,12.88-25.65,10.12-9.38-2.44-16.79-12.32-11.06-21.67,6.41-10.56,26-11.68,34.29-3.43,4.18,4.21,3.17,11.29-1.82,14.33-4.93,3.08-14.65,1.83-19.02-1.75-.45-.41-.83-.94-.94-1.52,2.23,2.72,9.44,1.72,12.53,1.04,1.56-.41,3.14-.85,4.25-1.93,2.31-2.56,1.09-4.96-2-5.92-3.21-1.09-7.68-1.13-11.07-.45-5.45,.92-12.6,5.53-6.9,11.09,6.49,6.3,21.07,7.62,27.4,.09h0Z"/><path class="g" d="M116.37,64.59c-2.45-7.82-3.62-15.32-3.88-23.72-5.06,7.34-6.52,16.73-5.8,25.45,.64,8.79,3.07,16.8,2.39,22.94-1.02,10.48-9.83,18.11-19.66,21.15-3.77,1.1-7.74,2.08-11.74,1.07,2.98,3.31,7.78,4.27,12.09,4.59,1.86,1.07,3.55,2.58,4.59,4.49,1.55,2.83,2.59,5.26,2.06,9.62,3.89-2.64,4.97-8.55,2.72-12.54-.42-.78-.96-1.49-1.58-2.11,9.39-1.92,17.95-8.33,21.68-17.42,4.91-11.08,.37-23.17-2.87-33.52Z"/><path class="g" d="M61.31,110.72c-4.31-2.34-23.06-13.25-24.58-26.11-.13-9.27,3.62-19.29,5.29-28.73,.81-4.62,1.63-8.45,.69-13.72-2.59-6.75-5.69-14.52-5.46-21.74,.79-5.22,5.58-9.44,9.94-12.32,1.74-1.11,3.59-2.1,5.67-2.8-6.9-1.13-14.14,1.3-19.52,5.85-9.4,7.92-6.56,23.29-3.61,33.97-.08,2.54-.73,5.27-1.31,7.93-2.35,10.89-6.05,22.26-3.86,33.7,2.98,12.99,13.89,22.36,26.58,24.15-1.38,.7-2.52,2-3.41,3.29-2.66,3.72-1.59,8.85,1.99,11.9-.82-3.55,.45-6.04,2.3-8.69,1.86-2.68,5.71-4.91,9.28-6.66Z"/><path class="g" d="M87.18,119.72c-1.47-4.72-5.7-8.82-10.58-10.04,5.9-4.2,8.64-11.05,10.03-18.35,.79-6.64-.11-13.4-2.92-19.63-5.73-12.78-19.84-19.7-32.73-22.09-8.63-2.38-17.65-7.02-23.85-13.38-3.66-3.77-4.63-8.51-1.69-13.35-1.27,.69-2.46,1.61-3.46,2.82-8.91,12.24,8.42,28.23,18.63,33.62,2.69,1.52,5.8,2.79,8.82,3.66,4.87,1.49,9.49,3.34,13.4,5.73,8.2,4.76,12.27,12.65,13.25,21.59-.11,9.45-7.67,19.08-16.23,23.57,7.35,0,12.89,3.99,15.59,8.76,3.09,5.47,4.29,13.24,1.09,19.53,9.06-2.95,13.74-13.13,10.65-22.46Z"/></g></g></g></svg>