<?xml version="1.0" encoding="UTF-8"?><svg id="b" xmlns="http://www.w3.org/2000/svg" xmlns:xlink="http://www.w3.org/1999/xlink" viewBox="0 0 144 144"><defs><style>.e{fill:lime;opacity:0;}.f{fill:url(#d);}</style><linearGradient id="d" x1="81.96" y1="4.42" x2="71.88" y2="126.12" gradientUnits="userSpaceOnUse"><stop offset="0" stop-color="#d3e6ef"/><stop offset=".26" stop-color="#add3de"/><stop offset=".48" stop-color="#92c7d3"/><stop offset=".6" stop-color="#98c2d1"/><stop offset=".94" stop-color="#a7bace"/><stop offset="1" stop-color="#cfbace"/></linearGradient></defs><g id="c"><g><rect class="e" width="144" height="144"/><g><path d="M77.54,121c-5.19-.45-8.87,.18-12.61,2.75-3.78,2.68-5.44,6.49-8.11,10.99-6.11-9.34,2.39-21.99,13.45-19.59,3.3,.74,6.17,2.87,7.26,5.85h0Z"/><path d="M73.76,121.88c3.84-5.41,12.32-5.29,17.11-.72,5.56,5.02,4.02,14.47-3.35,16.6,.55-4,1-8.09-2.16-10.8-3.13-2.82-6.77-4.16-11.6-5.08h0Z"/><path class="f" d="M91.53,3.96c21.6,7.2,31.78,22.84,21.6,43.2-7.2,14.4,10.62,24.92,11.28,39.31,.91,19.54-4.94,38.47-54.71,36.35h-4.76c-21.6,0-40.41-9.06-38.21-39.66,1.03-14.36,14.4-21.6,7.2-36-10.18-20.36,0-36,21.6-43.2,0,0,6.94-1.52,17.76-1.52s18.24,1.52,18.24,1.52Z"/><path d="M55.53,3.96c-12.34,8.09-23.89,19.07-17.55,34.77,.7,1.94,1.79,3.93,2.73,5.81,1.54,3.08,2.6,6.35,2.75,9.94,.26,4.49-1.03,9.16-2.87,12.95-2.53,5.53-6.12,10.3-7.05,15.92-3.37,24.59,8.17,35.02,31.4,39.46-13.92,3.03-30.67-.37-38.72-13.45-4.17-6.47-5.88-14.19-6.19-21.68-.18-3.9-.11-7.98,.88-11.76,1.45-6.58,5.76-12.58,7.32-18.08,.83-2.83,.14-5.57-1.11-8.21C16.45,26.31,30.71,5.44,55.53,3.96h0Z"/><path d="M69.71,122.82c17.18-2.3,46.63-4.28,48.44-26.27,.48-5.97,.65-11.69-2.89-17.38-5.06-8.52-13.09-18.67-10.19-29.69,.44-1.88,1.2-3.71,2.05-5.41,10.23-18.23,.01-30.24-15.58-40.11,25.1,1.93,38.76,22.89,27.69,46.14-2.06,4.68-.13,8.12,2.48,12.99,3.87,6.61,9.09,14.72,9,23.14,1.15,37.65-30.95,42.42-61,36.58h0Z"/><path d="M66,122.71c5.36-2.92,9.65-7.03,12.65-12.13,9.42-15.9,7.28-41.6-10.42-49.35-8.26-3.68-16.13-8.32-22.06-15.44-7.91-9.21-8.82-22.64,1.4-30.5,2.72-2.12,5.81-3.51,8.96-4.13-2.37,2.16-4.35,4.5-5.76,7-8.05,13.86,6.71,22.55,18.12,27.43,2.04,.9,4.26,1.71,6.32,2.58,7.92,3.4,14.55,9.97,18.16,17.76,7.6,16.26,3.9,37.18-9.21,49.3-4.94,4.51-11.52,7.56-18.16,7.48h0Z"/><path d="M99.65,30.22c-3.15,10.7-19.71,13.59-30.48,10.6-11.18-2.66-20.08-13.22-13.32-23.14,7.56-11.19,30.89-12.25,40.81-3.41,5,4.51,3.85,12.04-2.07,15.23-5.85,3.25-17.43,1.84-22.67-1.99-.53-.44-1-1-1.13-1.62,2.67,2.91,11.26,1.9,14.92,1.2,1.86-.43,3.74-.88,5.05-2.02,2.73-2.71,1.26-5.27-2.42-6.31-3.83-1.18-9.15-1.25-13.18-.56-6.49,.95-14.97,5.79-8.14,11.75,7.77,6.75,25.15,8.25,32.63,.28h0Z"/><path d="M65.18,123c4.84-4.84,13.34-3.68,16.78,2.29,3.58,5.42,2.15,12.81-2.96,16.71-1.88-4.25-1.84-8.7-3.89-12.7-1.7-3.83-6.02-5.05-9.93-6.3h0Z"/></g></g></g></svg>