<?xml version="1.0" encoding="UTF-8"?><svg id="b" xmlns="http://www.w3.org/2000/svg" viewBox="0 0 1134 463"><defs><style>.d{opacity:0;}</style></defs><g id="c"><g><path d="M745.82,192.95c-1.08,3.72-1.84,6.73-2.85,9.65-.86,2.47-1.49,5.34-3.19,7.11-1.55,1.61-4.65,3.08-6.6,2.63-3.07-.71-3.72-3.87-2.89-6.99,.29-1.08,.51-2.17,1.04-4.46-4.53,3.23-8.25,5.73-11.79,8.44-9.55,7.32-20.32,11.98-32.14,13.49-8.93,1.14-23.4-6.94-22.55-20.99-4.55,2.55-8.84,5.07-13.24,7.39-10.96,5.77-21.01,5.7-29.03-5.06-4.49,3.85-9.54,6.87-12.6,11.26-2.09,2.99-1.39,7.92-1.96,11.98-1.55,11.06-2.42,22.28-4.85,33.15-3.48,15.58-7.49,31.1-12.47,46.25-3.17,9.63-8.41,18.6-12.94,27.75-2.19,4.43-4.28,9.14-7.47,12.79-10.88,12.42-21.32,25.47-33.65,36.31-11.88,10.44-24.27,20.63-39.99,26.09-8.11,2.82-15.89,5.81-24.34,5.04-4.13-.38-8.73-2.26-11.93-4.9-10.02-8.24-15.15-19.5-19.12-31.77-3.74-11.57-5.12-23.38-4.97-35.15,.25-19.16,5.21-37.42,13.88-54.74,5.53-11.04,11.77-21.47,20.42-30.21,6.83-6.9,13.82-13.83,21.66-19.48,15.94-11.49,32.46-22.17,48.84-33.05,2.45-1.63,5.4-2.51,8.69-3.99-3.55-2.82-6.97-5.3-10.11-8.07-11.6-10.25-17.39-23.44-19.68-38.54-1.94-12.78-1.01-25.45,.97-38.06,1.35-8.62,2.79-17.3,5.2-25.66,3.24-11.25,8.01-22.06,18.51-28.51,13.57-8.34,30.99-8.98,43.97,2.95,7.42,6.82,11.17,15.48,14.32,24.47,8.35,23.79,9.69,48.54,9.08,73.49-.05,1.99,0,3.99,0,7.07,6.99-3.61,13.29-7.12,19.82-10.09,2.61-1.19,6.16-2.34,8.55-1.48,3.56,1.27,3.09,5.02,1.73,8.19-3.39,7.9-6.83,15.79-10.21,23.7-.94,2.19-3.84,3.79-1.34,6.96,2.65,3.36,5.57,6.31,9.94,4.63,5.96-2.29,11.5-5.66,17.4-8.16,9.36-3.98,11.34-12.84,14.02-21.02,3.02-9.21,9.91-15.21,16.64-21.28,1.57-1.42,5.54-1.76,7.53-.79,3.36,1.63,6.37,.93,9.63,.81,4.63-.17,6.51,3.36,4.95,7.79-2.76,7.84-5.38,15.74-7.55,23.75-.8,2.94-1.81,4.47-4.86,4.39-3.23-.08-4.33-1.94-4.27-4.9,.05-2.62,.01-5.23,.01-8.81-5.83,6.02-11.42,11.61-16.78,17.41-2.59,2.8-3.1,13.02-1.17,16.23,2.35,3.92,7.54,5.21,13.69,4.32,14.54-2.11,25.28-10.91,35.99-19.83,2.04-1.7,3.63-3.96,5.71-5.59,6.69-5.26,9.73-11.81,8.7-20.46-.4-3.36,.56-6.89,1.03-10.32,.1-.75,.67-1.92,1.21-2.04,4.8-1.05,4.76-5.33,5.93-8.73,4.58-13.29,8.9-26.71,17.24-38.27,1.73-2.39,3.87-4.75,6.33-6.3,4.95-3.12,11.26,.61,11.06,6.43-.13,3.76-.93,7.49-1.22,9.69,5.55-2.42,11.8-5.85,18.47-7.88,10.84-3.3,20.71,4.73,21.92,15.97,2.66,24.76-15.39,48.84-36.69,56.31-7.92,2.78-16.26,3.52-24.14-.6-1.73-.9-2.89-2.87-4.37-4.28-.89-.84-1.9-1.55-2.84-2.31-3.21,3.83-3.22,6.82-1.15,11.18,6.38,13.44,25.89,20.68,40.61,14.53,5.05-2.11,10.31-3.71,15.29-5.96,1.4-.63,2.91-2.64,3.08-4.16,1.33-12.01,3.72-23.91,12.76-32.42,6-5.65,13.66-9.67,20.93-13.79,3.5-1.99,7.19,.15,8.8,3.5,.99,2.06,.84,5.28,0,7.52-2.49,6.61-4.56,13.76-8.69,19.3-5.88,7.89-13.26,14.72-20.37,21.61-2.45,2.37-2.89,4.28-1.13,6.78,1.83,2.6,3.25,6.18,7.69,4.41,13.02-5.19,25.33-11.02,33.72-23.33,5.66-8.29,12.88-15.54,19.59-23.09,3.39-3.81,7.22-7.23,10.77-10.89,3.12-3.22,7.05-4.38,10.91-2.6,3.87,1.78,5.6,5.53,5.17,9.99-.06,.6,.1,1.23,.21,2.35,3.25-2.88,6.18-5.46,9.09-8.05,4.35-3.87,9.74-4.98,14.89-3.4,2.73,.84,5.89,4.2,6.57,6.98,1.52,6.22,1.61,12.8,2.27,19.11,6.34-7.42,12.88-15.49,19.91-23.12,3.33-3.62,7.35-6.75,11.53-9.35,1.39-.87,4.92-.03,6.23,1.28,.95,.95,.51,4.3-.42,5.96-3.1,5.55-7.16,10.6-10.02,16.26-5.82,11.56,3.29,26.24,16.34,26.34,16.49,.12,30.55-5.11,39.78-19.82,4.56-7.27,9.36-14.38,13.75-21.76,1.49-2.5,1.68-5.76,3.1-8.31,.91-1.65,2.99-2.65,4.54-3.94,1.07,1.62,3.33,3.51,3.03,4.81-1.55,6.68-2.66,13.83-5.98,19.64-4.8,8.4-10.52,16.67-17.38,23.43-11.58,11.42-25.36,17.54-42.67,15.48-11.67-1.39-18.91-7.03-23.62-16.74-1.86-3.82-2.03-8.46-3.19-13.73-4.25,5.12-8.68,9.69-12.2,14.88-4.17,6.14-7.53,12.83-11.28,19.26-.75,1.28-1.44,3.15-2.56,3.53-1.99,.67-5.65,1.22-6.18,.34-1.17-1.93-1.86-5.26-.95-7.18,5.89-12.52,8.16-25.7,8.17-39.37,0-5.58-2.38-7.21-6.65-3.87-9.57,7.48-17.37,16.43-22.54,27.81-3.63,8-8.96,15.26-13.93,22.58-.75,1.11-4.09,1.6-5.47,.89-2.5-1.28-4.57-3.78-2.82-7.03,3.32-6.2,6.18-12.81,10.45-18.29,5.31-6.81,7.09-14.39,8.01-22.51,.18-1.62,.5-3.22,.02-5.52-4.99,5.52-10.17,10.88-14.94,16.58-9.41,11.25-17.84,23.56-29.86,32.19-6.87,4.93-14.75,8.81-22.69,11.79-8.23,3.09-15.72-.77-18.87-8.98-1.59-4.15-3.45-3.9-6.65-2.55-8.88,3.75-17.85,6.81-27.8,6.55-14.38-.38-25.9-5.94-35.41-18.14Zm-146.42,30.17c-4.45-2.73-8.68-3.87-10.1-6.52-2.17-4.04-5.29-4.05-8.66-4.59-1.78-.29-3.71-.17-5.35-.82-11.26-4.48-21.5-4.43-31.63,3.78-7.49,6.07-16.43,10.3-24.56,15.61-5.52,3.6-10.8,7.6-16.11,11.51-5.71,4.2-11.92,7.94-16.89,12.9-9.92,9.91-19.44,20.24-26.01,32.92-8.19,15.82-13.02,32.5-14.06,50.27-.64,10.99-.08,22,3.27,32.46,2.92,9.11,6.5,18.19,11.19,26.49,3.65,6.44,12.58,11.91,22.43,7.42,7.85-3.58,16.45-5.84,23.68-10.36,8.85-5.54,17.14-12.27,24.72-19.49,10.46-9.97,21.02-20.13,29.68-31.61,7.46-9.9,12.98-21.46,18.13-32.84,4.52-10,7.86-20.63,10.74-31.25,2.67-9.82,4.25-19.95,5.94-30,1.55-9.23,2.61-18.55,3.61-25.87Zm-70.33-83.68c-1.26,12.94,1.63,26.05,9.63,37.26,4.52,6.33,11.15,11.2,17.03,16.5,3.01,2.72,6.04,2.22,9.77,.16,10.39-5.73,21.08-10.92,31.81-16,3.42-1.62,4.99-3.35,4.81-7.42-.61-13.66-.49-27.35-1.18-41.01-.86-17.16-4.93-33.53-13.35-48.69-5.21-9.39-15.11-15.14-23.79-14.29-15.15,1.48-23.21,11.23-27.51,24.29-5.13,15.58-7.88,31.73-7.22,49.2Zm241.08,35.04c13.28-1.46,22.82-5.39,30.04-14.41,8.18-10.21,13.87-21.09,11.83-34.74-.94-6.25-3.99-8.5-10.21-7.44-10.21,1.75-17.55,8.4-23.26,15.92-7.11,9.37-12.5,20.06-18.41,30.31-.68,1.18-.52,4.08,.31,4.67,3.49,2.48,7.4,4.38,9.7,5.67Zm-197.45,25.14c.05,.47,.11,.94,.16,1.41,5.99,.85,11.97,1.71,17.96,2.54,.29,.04,.73-.06,.92-.26,3.25-3.53,6.84-6.83,9.54-10.74,1.21-1.75,.63-4.72,.96-8.1-10.39,5.33-19.96,10.24-29.54,15.16Zm271.89-45.78c-13.47,6.2-19.65,16.62-21.48,30.55,10.02-7.75,18.75-20.07,21.48-30.55Zm-84.42-11.89c8.3-8.75,12.65-19.29,14.74-31.7-9.45,9.09-11.35,20.73-14.74,31.7Zm-142.73,47.74c-6.68,5.9-7.44,7.62-4.99,13.05,.78-5.25,8.47-6.44,4.99-13.05Zm66.97-20.29c.31,.28,.62,.56,.93,.84,2.75-3,5.49-6.01,8.24-9.01-.39-.35-.78-.69-1.16-1.04-2.67,3.07-5.34,6.14-8.01,9.21Z"/><path d="M395.71,211.38c-8.53,4.67-17.21,10.06-26.43,14.28-7.28,3.33-14.84-2.23-15.29-10.24-.05-.95-.2-1.89-.39-3.61-4.85,3.21-8.99,6.53-13.62,8.84-4.62,2.31-9.66,4.7-14.68,5.12-10,.84-13.57-2.72-15.3-12.78-.33-1.92-.79-3.82-2.14-4.48-4.63-2.77-9.26-5.55-13.69-8.2-2.22,2.03-5.06,4.34-7.56,6.96-5.62,5.88-12.26,9.35-20.48,9.82-1.41,.08-2.86,1.19-4.1,2.08-4.52,3.22-8.6,7.3-13.52,9.65-7.57,3.61-15.56-.85-18.22-9.32-.74-2.35-1.07-4.82-1.75-7.99-13.03,9.94-26.88,13.89-41.75,5.3-4.45,3.15-8.55,6.49-13.07,9.13-6.56,3.83-13.9,2.43-18.86-3.42-4.73-5.57-7.57-12.12-7.81-19.48-.48-14.44-.71-28.9-1.04-43.34-.03-1.43,0-2.86,0-5.5-3.65,8.38-6.08,16.04-10.11,22.73-7.32,12.13-15.15,24.03-23.64,35.37-6.58,8.8-16.72,9.28-22.57,2.05-1.61-1.99-2.64-4.59-3.46-7.08-4.33-13.22-4.92-26.7-3.49-40.53,1.36-13.13,4.12-25.87,9.3-37.89,5.35-12.42,11.16-24.84,24.45-31.25,6.67-3.22,13.54-3.96,19.76,.19,4.72,3.14,8.56,7.6,12.73,11.42,1.05-1.16,2.91-3.09,4.6-5.16,.49-.61,.48-1.62,.69-2.45,.56-2.21,.59-4.81,1.85-6.5,1.14-1.53,3.82-3.09,5.44-2.77,1.71,.35,4.42,3.19,4.18,4.46-1.04,5.39-1.69,11.72-4.96,15.62-5.37,6.42-7.84,13.36-6.57,20.91,3.06,18.23,1.02,36.51,1.83,54.73,.32,7.21,.78,14.71,3.02,21.46,3.8,11.42,8.86,10.07,15.51,4.21,1.34-1.18,2.78-2.24,3.11-2.5-4.62-9.52-9.38-18.37-13.19-27.61-1.77-4.3-2.09-9.33-2.42-14.08-1.66-24.57,1.88-48.58,9.29-71.94,3.95-12.45,9.14-24.76,19.71-33.18,5.85-4.66,12.82-9.47,20.97-7.14,3.73,1.06,7.34,4.41,9.79,7.64,4.87,6.41,5.97,14.38,6.08,22.17,.25,18.4-1.22,36.6-5.44,54.67-3.62,15.52-7.95,30.73-14.7,45.09-3.62,7.7-8.95,14.6-13.54,21.89,8.52,6.13,19.77,1.25,28.54-5.08,10.28-7.43,12.18-18.81,14.95-29.7,2.38-9.38,7.05-17.4,12.61-25.01,3.78-5.17,7.55-10.48,12.17-14.83,1.92-1.81,6.19-2.04,9.1-1.48,1.38,.26,2.09,4.05,3.56,7.22,11.03,4.38,11.95,8.6,10.63,23.65-.76,8.64-2.8,17.23-4.91,25.68-1.27,5.09-3.79,9.86-5.75,14.78,.34,.29,.68,.57,1.02,.86,3.95-4.54,9.02-8.55,11.49-13.78,1.77-3.75,.17-9.14-.12-13.79-.81-13.41,3.26-25.1,12.48-34.84,.94-.99,3.91-1.49,4.84-.77,1.8,1.37,4.01,3.81,3.94,5.73-.22,6.24-.99,12.52-2.31,18.63-1.62,7.54-3.97,14.93-6.06,22.37-.83,2.97,1.5,6.85,5.21,7.79,3.11,.79,5.31,.12,6.79-3.58,1.87-4.67,4.65-9.08,7.67-13.14,1.08-1.46,4.14-2.36,6-2,1.24,.24,3.09,3.46,2.72,4.83-1.38,5.18-2.63,10.79-5.63,15.04-5.01,7.12-5.68,12.31-.24,19.43,13.53-2.01,22.8-10.76,31.49-20.22,1.81-1.97,2.31-5.1,3.59-7.61,3.32-6.47,6.7-12.92,10.17-19.31,.7-1.28,1.71-2.99,2.89-3.28,2.38-.6,5.27-1.06,7.36-.18,1.01,.42,1.61,4.46,.81,6.09-4.29,8.73-9.45,17.04-13.51,25.87-1.86,4.04-2.1,8.91-2.6,13.45-.18,1.62,1.01,3.38,1.96,6.24,6.45-3.54,12.5-6.67,18.34-10.15,2.38-1.42,4.59-3.35,6.39-5.46,1.44-1.7,2.87-3.96,3.04-6.08,.52-6.24,2.41-7.45,8.38-4.46,6.16-5.73,12.21-11.65,18.59-17.19,4.61-4,9.44-7.84,14.63-11,1.88-1.14,5.09-.07,7.7-.01-.22,2.63-.06,5.36-.78,7.85-.72,2.48-2.75,4.57-3.47,7.05-3.44,11.91-6.56,23.91-9.97,35.82-.95,3.32-2.51,6.47-3.82,9.69-1.61,3.96-5.33,4.25-7.89,2.58-7.24-4.72-14-10.2-20.52-15.06Zm-210.09-8.93c11.5-11.01,16.62-25.44,21.28-39.89,5.41-16.8,10.6-33.76,11.24-51.64,.32-9.11,.86-18.23,.63-27.33-.09-3.66-1.74-7.36-3.09-10.89-2.31-6.03-6.39-7.6-12.17-4.83-6.49,3.11-11.79,7.97-14.4,14.48-4.47,11.16-8.1,22.67-11.7,34.16-5.18,16.55-6.91,33.5-5.45,50.83,1.1,13.08,5.9,24.59,13.67,35.12Zm-94.76-16.17c1.1,4.07,2.91,11.91,5.38,19.53,1.51,4.67,4.4,5.09,7.7,1.33,3.25-3.71,6.06-7.82,8.93-11.85,3.62-5.09,7.9-9.91,10.47-15.51,5.98-13.03,10.78-26.61,16.69-39.68,5.05-11.16,2.29-20.91-3.79-30.37-2.79-4.34-8.4-6.07-13.39-4.82-7.35,1.84-11.74,7.19-15.29,13.25-11.58,19.78-15.74,41.53-16.7,68.12Zm185.01-36.6c-6.72,1.41-9.21,5.52-11.31,10.26-2.48,5.59-5.01,11.23-8.23,16.4-3.42,5.49-4.85,11.38-4.01,17.46,.67,4.87,2.18,10.06,8.37,11.97,13.02-16.54,17.31-35.24,15.18-56.08Zm141.36,65.02c3.09-11.07,5.95-21.32,8.81-31.58-.29-.12-.57-.24-.86-.36-6.62,6.17-13.25,12.34-20.16,18.77,4.13,4.46,7.85,8.47,12.21,13.17Zm-174.25,6.02c3.8-2.17,7.37-4.2,9.96-5.68-4.01-5.93-7.62-11.27-11.23-16.6-2.38,6.91-5.22,14.14,1.27,22.28Z"/><path d="M361.02,137.01c.91-.9,2.37-3.63,4.19-3.9,3.13-.46,6.73,.05,9.66,1.27,1.7,.71,2.96,3.49,3.51,5.58,.42,1.57-.61,3.53-1,5.32-1.68-.46-3.34-1-5.04-1.37-1.75-.39-3.54-.87-5.31-.86-3.31,.02-6.08-.36-6.02-6.03Z"/><rect class="d" width="1134" height="463"/></g></g></svg>